<svg width="32" height="32" viewBox="0 0 32 32" fill="none" xmlns="http://www.w3.org/2000/svg">
<rect width="32" height="32" rx="16" fill="url(#paint0_linear_41260_3814)"/>
<path d="M14.8539 16.9533C14.8539 16.4308 14.4231 16 13.9006 16C13.3781 16 12.9473 16.4308 12.9473 16.9533C12.9473 17.2062 13.0477 17.4487 13.2265 17.6274C13.4053 17.8062 13.6478 17.9067 13.9006 17.9067C14.1534 17.9067 14.3959 17.8062 14.5747 17.6274C14.7535 17.4487 14.8539 17.2062 14.8539 16.9533ZM17.9156 19.1258C17.5031 19.5383 16.6231 19.685 15.9998 19.685C15.3764 19.685 14.4964 19.5383 14.0839 19.1258C14.0616 19.102 14.0347 19.0829 14.0047 19.0699C13.9747 19.0569 13.9424 19.0502 13.9098 19.0502C13.8771 19.0502 13.8448 19.0569 13.8148 19.0699C13.7849 19.0829 13.7579 19.102 13.7356 19.1258C13.7117 19.1481 13.6927 19.1751 13.6797 19.2051C13.6667 19.235 13.66 19.2673 13.66 19.3C13.66 19.3327 13.6667 19.365 13.6797 19.3949C13.6927 19.4249 13.7117 19.4519 13.7356 19.4742C14.3864 20.125 15.6331 20.18 15.9998 20.18C16.3664 20.18 17.6131 20.125 18.2639 19.4742C18.2878 19.4519 18.3068 19.4249 18.3198 19.3949C18.3329 19.365 18.3396 19.3327 18.3396 19.3C18.3396 19.2673 18.3329 19.235 18.3198 19.2051C18.3068 19.1751 18.2878 19.1481 18.2639 19.1258C18.1723 19.0342 18.0164 19.0342 17.9156 19.1258ZM18.0989 16C17.5764 16 17.1456 16.4308 17.1456 16.9533C17.1456 17.4758 17.5764 17.9067 18.0989 17.9067C18.6214 17.9067 19.0523 17.4758 19.0523 16.9533C19.0523 16.4308 18.6306 16 18.0989 16Z" fill="#FCF9F6"/>
<path d="M15.9997 6.83203C10.9397 6.83203 6.83301 10.9387 6.83301 15.9987C6.83301 21.0587 10.9397 25.1654 15.9997 25.1654C21.0597 25.1654 25.1663 21.0587 25.1663 15.9987C25.1663 10.9387 21.0597 6.83203 15.9997 6.83203ZM21.3163 17.2179C21.3347 17.3462 21.3438 17.4837 21.3438 17.6212C21.3438 19.6745 18.9513 21.3429 15.9997 21.3429C13.048 21.3429 10.6555 19.6745 10.6555 17.6212C10.6555 17.4837 10.6647 17.3462 10.683 17.2179C10.2155 17.007 9.89467 16.5395 9.89467 15.9987C9.89332 15.7358 9.96966 15.4784 10.1141 15.2588C10.2586 15.0392 10.4647 14.8672 10.7066 14.7644C10.9485 14.6615 11.2154 14.6325 11.4738 14.6808C11.7322 14.7292 11.9705 14.8528 12.1588 15.0362C13.0847 14.367 14.368 13.9454 15.7888 13.8995L16.4672 10.7004C16.4763 10.6362 16.513 10.5812 16.568 10.5537C16.623 10.517 16.6872 10.5079 16.7513 10.517L18.9697 10.9937C19.0449 10.8411 19.1596 10.7115 19.3018 10.6182C19.4441 10.5249 19.6087 10.4714 19.7785 10.4632C19.9484 10.4549 20.1175 10.4923 20.268 10.5714C20.4186 10.6505 20.5453 10.7685 20.6349 10.913C20.7246 11.0576 20.7739 11.2235 20.7778 11.3935C20.7817 11.5636 20.74 11.7316 20.6571 11.8801C20.5741 12.0286 20.453 12.1523 20.3062 12.2382C20.1594 12.3241 19.9923 12.3691 19.8222 12.3687C19.3088 12.3687 18.8963 11.9654 18.8688 11.4612L16.8797 11.0395L16.2747 13.8995C17.6772 13.9454 18.933 14.3762 19.8497 15.0362C19.9902 14.902 20.1583 14.8001 20.3423 14.7377C20.5264 14.6753 20.7218 14.6539 20.9149 14.6749C21.1081 14.6959 21.2943 14.7588 21.4606 14.8593C21.6269 14.9598 21.7693 15.0954 21.8777 15.2567C21.9861 15.4179 22.0579 15.6009 22.0882 15.7928C22.1185 15.9848 22.1065 16.181 22.053 16.3678C21.9996 16.5546 21.9059 16.7275 21.7787 16.8743C21.6514 17.0211 21.4936 17.1384 21.3163 17.2179Z" fill="#FCF9F6"/>
<defs>
<linearGradient id="paint0_linear_41260_3814" x1="0" y1="0" x2="23.7226" y2="36.2393" gradientUnits="userSpaceOnUse">
<stop stop-color="#F4EAD8"/>
<stop offset="1" stop-color="#E0B764"/>
</linearGradient>
</defs>
</svg>
